<?xml version="1.0" standalone="no"?>
<!DOCTYPE svg PUBLIC "-//W3C//DTD SVG 20010904//EN"
 "http://www.w3.org/TR/2001/REC-SVG-20010904/DTD/svg10.dtd">
<svg version="1.0" xmlns="http://www.w3.org/2000/svg"
 width="700.000000pt" height="700.000000pt" viewBox="0 0 700.000000 700.000000"
 preserveAspectRatio="xMidYMid meet">
<metadata>
Created by potrace 1.11, written by Peter Selinger 2001-2013
</metadata>
<g transform="translate(0.000000,700.000000) scale(0.100000,-0.100000)"
fill="#000000" stroke="none">
<path d="M2251 6442 c-68 -34 -84 -116 -32 -171 16 -17 40 -32 53 -32 12 -1
91 -3 173 -4 83 -2 153 -3 157 -4 4 0 -1 -16 -12 -33 -11 -18 -20 -50 -20 -71
0 -22 -7 -54 -16 -73 l-16 -34 -77 -1 c-42 0 -99 0 -128 1 -90 3 -143 -41
-143 -116 0 -70 55 -109 153 -108 20 1 37 0 37 0 0 -1 -5 -17 -11 -36 -16 -54
-19 -189 -5 -250 18 -76 59 -155 116 -220 67 -79 90 -119 90 -163 0 -53 -19
-92 -85 -172 -58 -70 -109 -163 -120 -220 -11 -54 -14 -169 -6 -207 5 -21 6
-38 2 -39 -3 -1 -28 -3 -54 -5 -88 -7 -118 -46 -120 -155 l-2 -63 -180 -1
c-198 -1 -221 -7 -245 -64 -11 -28 -13 -28 -40 -15 -16 8 -40 13 -53 10 -14
-2 -50 -7 -81 -11 l-56 -7 0 65 c0 180 -85 331 -229 405 -86 46 -133 54 -301
56 -244 3 -344 -31 -453 -149 -40 -44 -96 -162 -103 -220 -4 -27 -7 -201 -7
-386 l0 -336 -53 -12 c-67 -15 -134 -77 -153 -141 -21 -70 -15 -423 9 -595 23
-158 94 -418 146 -535 123 -274 250 -468 437 -665 388 -411 919 -650 1507
-680 36 -1 67 -3 70 -4 3 -1 6 -58 6 -129 1 -177 24 -228 129 -284 39 -21 42
-21 962 -20 903 0 923 1 965 21 105 49 130 103 132 284 l1 128 99 5 c452 21
900 188 1260 472 179 140 394 385 514 583 160 268 266 576 297 864 4 33 9 71
11 85 2 14 5 120 5 235 1 227 -2 250 -54 311 -30 35 -104 74 -140 74 -22 0
-25 5 -30 68 -23 244 -195 464 -429 548 -119 43 -258 50 -381 20 -88 -22 -216
-90 -277 -147 -29 -27 -55 -49 -57 -49 -2 0 -21 16 -43 36 -173 160 -400 216
-631 154 -50 -14 -156 -64 -180 -86 -15 -14 -18 -9 -28 48 -13 77 -56 166
-112 233 -81 97 -89 111 -95 163 -6 60 8 96 62 157 112 127 149 218 148 370 0
145 -28 213 -148 358 -31 38 -56 72 -57 75 -10 102 -10 103 15 145 14 23 36
54 49 68 l23 26 1177 0 c647 0 1179 2 1182 4 2 3 5 52 6 109 l3 105 -885 2
c-486 2 -993 3 -1126 3 l-242 0 6 63 c5 57 -5 99 -34 147 -2 3 510 5 1137 5
l1140 0 1 40 c2 100 0 167 -6 173 -4 4 -1017 7 -2253 7 -1814 0 -2251 -2
-2271 -13z m665 -249 l-21 -43 -8 30 c-4 16 -12 32 -17 35 -20 12 -9 20 28 20
l38 0 -20 -42z m329 2 l-20 -41 -10 27 c-5 15 -13 31 -17 35 -15 14 -8 19 30
20 l38 1 -21 -42z m345 34 c0 -4 -4 -10 -9 -14 -5 -3 -13 -19 -16 -36 l-7 -32
-18 39 c-9 22 -16 42 -14 45 5 8 64 6 64 -2z m322 2 c4 -1 0 -13 -8 -28 -7
-16 -14 -35 -14 -43 -1 -8 -10 2 -20 24 -26 52 -24 55 42 47z m333 -3 c0 -2
-7 -18 -16 -36 l-17 -34 -16 31 c-22 43 -20 49 16 45 17 -2 32 -5 33 -6z"/>
</g>
</svg>
